<?xml version="1.0" encoding="UTF-8" standalone="no"?>
<!-- Created with Inkscape (http://www.inkscape.org/) -->

<svg
   width="200mm"
   height="200.00009mm"
   viewBox="0 0 200 200.00009"
   version="1.1"
   id="svg5"
   inkscape:version="1.1.2 (0a00cf5339, 2022-02-04)"
   sodipodi:docname="superbuff.svg"
   xmlns:inkscape="http://www.inkscape.org/namespaces/inkscape"
   xmlns:sodipodi="http://sodipodi.sourceforge.net/DTD/sodipodi-0.dtd"
   xmlns="http://www.w3.org/2000/svg"
   xmlns:svg="http://www.w3.org/2000/svg">
  <sodipodi:namedview
     id="namedview7"
     pagecolor="#ffffff"
     bordercolor="#666666"
     borderopacity="1.0"
     inkscape:pageshadow="2"
     inkscape:pageopacity="0.0"
     inkscape:pagecheckerboard="0"
     inkscape:document-units="mm"
     showgrid="false"
     inkscape:zoom="0.69664703"
     inkscape:cx="392.5948"
     inkscape:cy="442.83545"
     inkscape:window-width="1850"
     inkscape:window-height="1016"
     inkscape:window-x="0"
     inkscape:window-y="0"
     inkscape:window-maximized="1"
     inkscape:current-layer="layer1"
     fit-margin-top="0"
     fit-margin-left="0"
     fit-margin-right="0"
     fit-margin-bottom="0" />
  <defs
     id="defs2" />
  <g
     inkscape:label="Layer 1"
     inkscape:groupmode="layer"
     id="layer1"
     transform="translate(-0.95951216,-0.63309284)">
    <path
       style="fill:none;stroke:#030303;stroke-width:0.26712"
       d="m 112.59907,0.63758446 c -0.0203,2.79191994 -0.67986,5.58942694 -1.00601,7.12530594 -0.0624,0.2945192 -0.38748,1.3198359 -0.81602,1.7210801 -0.64831,0.6073125 -0.94844,0.6396645 -1.18197,0.7748955 -0.6363,0.368547 -2.3547,0.922126 -3.29789,2.922247 -0.99974,2.120471 -2.79448,6.35691 -3.56269,8.835639 -0.95695,3.087438 -0.64982,4.895544 -0.64856,8.266612 5e-4,1.544146 0.0976,2.094873 0.0692,3.419525 -0.0211,0.978597 -0.57371,1.533601 -1.07533,1.797276 -1.140438,0.599472 -4.14994,2.047555 -5.501878,3.049812 -4.233049,3.13789 -8.071094,6.740138 -12.015028,10.31872 -9.078846,8.238105 -18.888605,15.042385 -29.787233,19.596997 -3.704384,1.548135 -7.981723,2.899588 -11.514391,4.798624 -1.798002,0.966348 -3.688364,2.010217 -5.256565,3.391886 -0.690123,0.608014 -1.33367,1.349166 -2.00251,2.00422 -1.278345,1.251961 -2.797745,1.938666 -3.489607,2.31038 -0.284605,0.152781 -0.58698,0.198677 -0.887362,0.764799 -0.250561,0.472055 -0.256322,0.889942 -0.277848,1.003398 -0.104359,0.552437 -0.168714,0.901634 -0.495617,2.560087 -0.488106,2.475132 -2.179477,6.453939 -2.82153,9.121776 -1.037044,4.30974 -1.603929,8.808776 -1.780376,13.397606 -0.888914,23.11773 4.85547,46.06185 11.834692,67.55817 1.741435,5.36361 3.630291,10.66307 5.526415,15.96312 0.346933,0.97005 0.790482,2.20718 1.153434,3.13532 0.275599,0.70495 0.482611,1.29102 1.053573,1.75109 1.530158,1.23316 2.70463,1.43126 2.950184,1.68668 0.57772,0.60061 0.94969,1.12026 1.501875,1.65133 0.270846,0.26053 0.401007,0.66019 1.501884,0.85517 0.675089,0.11944 4.372217,0.0805 5.256566,0.0367 1.330413,-0.0656 1.507635,-0.4467 1.752192,-0.65535 0.817269,-0.69725 1.221279,-1.39478 2.002499,-2.1476 0.25332,-0.24403 0.852067,-0.29048 2.216779,-1.23202 1.224026,-0.84462 1.217269,-4.16123 1.431781,-5.93656 0.211765,-1.7491 0.443304,-3.63133 0.619275,-5.41605 0.364703,-3.70004 0.820282,-7.41887 1.271597,-11.11718 0.345172,-2.82604 0.746179,-5.65779 0.968701,-8.55167 0.07511,-0.97688 0.245056,-2.54326 0.250064,-3.42066 0.0078,-1.41958 0.280605,-3.32432 0.194747,-4.27583 -0.03257,-0.3606 -0.174463,-0.75199 -0.133417,-1.42529 0.04509,-0.73829 0.387735,-1.46234 0.483608,-1.71032 0.439549,-1.13681 0.614511,-1.77362 1.438793,-3.99078 0.814023,-2.18923 2.172221,-3.99962 2.835545,-6.27122 0.338923,-1.16104 0.60751,-2.85711 0.761954,-3.99078 0.146934,-1.0778 0.250307,-2.43466 1.213513,-2.9241 1.012771,-0.51424 2.369716,-0.21151 3.218028,-0.21151 1.324397,0 1.973463,-0.0527 3.254066,0.0114 0.61326,0.0307 1.140429,0.15935 1.752192,0.2255 1.664828,0.18044 3.568208,0.19809 5.256566,0.38196 5.379724,0.58522 11.245056,0.72347 16.520659,1.94807 1.32139,0.30672 2.48059,0.47462 3.75469,1.02449 1.53466,0.66218 2.45807,1.26679 3.48185,2.42155 0.65132,0.73488 1.23955,1.67241 1.7174,2.53899 4.38648,7.95418 6.41777,18.57223 8.41101,27.65039 0.49111,2.23626 1.10088,4.98419 1.56521,7.12639 0.86683,4.00047 1.63679,7.95135 2.39899,11.97234 0.26309,1.38764 0.21853,2.91355 1.07736,3.74619 0.74542,0.72291 1.61676,0.66419 1.87383,0.8184 0.80075,0.48033 1.10188,0.97888 1.50188,1.42271 0.52941,0.5875 0.50439,1.40446 2.25282,1.90361 0.45256,0.12911 1.55695,0.0906 2.25281,0.0906 1.97146,0 4.60426,0.0883 6.50814,-0.005 1.33041,-0.0656 1.50764,-0.44671 1.75218,-0.65535 0.81327,-0.69384 1.20677,-1.37826 2.00252,-2.14789 0.20125,-0.1947 1.15994,-0.34095 2.43429,-1.42642 1.19474,-1.01766 1.22678,-3.17296 1.6025,-4.88671 0.24581,-1.12142 0.41126,-2.04043 0.63179,-3.13561 0.50138,-2.48796 1.10462,-5.22992 1.61826,-7.69651 0.98924,-4.75187 1.93067,-9.50945 2.94218,-14.25278 1.61328,-7.56395 3.0373,-15.21569 4.69512,-22.80444 0.70363,-3.22169 1.3567,-6.45707 2.00851,-9.69188 0.19674,-0.97605 0.44456,-1.83206 0.54468,-2.85057 0.3532,-3.59197 0.61878,-4.79492 0.49687,-5.98074 -0.0391,-0.38141 0.0396,-0.94553 -0.74092,-1.20607 -0.62628,-0.20896 -1.61502,0.30842 -1.71515,0.34577 -0.45356,0.16846 -0.72716,0.1639 -2.50312,0.96435 -2.66458,1.20121 -4.72742,3.99306 -8.01001,3.06946 -2.89588,-0.81468 -6.03179,-4.39753 -7.98774,-6.62526 -1.32516,-1.50936 -2.98898,-3.81033 -3.93141,-5.67117 -0.7587,-1.49912 -0.66984,-1.89961 -2.09863,-2.37537 -0.58773,-0.19555 -1.10037,0.0726 -1.75194,0.22634 -0.85582,0.20181 -2.04531,0.38882 -3.00375,0.28506 -1.25933,-0.13628 -1.88861,-0.75969 -2.34067,-1.3543 -0.8293,-1.09034 -2.09287,-5.69513 -2.43631,-7.90318 -0.98422,-6.326229 -0.89736,-11.724043 0.49564,-17.958492 0.66256,-2.965725 1.38648,-5.918617 2.81275,-7.026057 0.20952,-0.162769 0.42629,-0.300164 0.7189,-0.448384 2.20451,-1.117134 3.36271,0.603453 4.18924,2.343722 0.54969,1.157324 2.19374,4.43432 2.84156,5.377859 0.40525,0.590352 1.07509,0.95664 1.70286,1.37881 0.60301,0.405918 0.75194,0.629691 0.994,1.240285 0.16446,0.41503 0.74643,2.321765 1.06182,2.834875 1.61302,2.624788 4.85808,5.693131 7.73242,6.67286 1.77047,0.603468 3.26809,0.897643 5.25657,0.573545 1.09638,-0.179034 1.9184,-0.288772 3.00376,-0.701533 2.66157,-1.012515 5.7304,-3.618778 7.38172,-6.259816 0.82404,-1.31782 0.88086,-3.034989 1.91315,-3.801223 1.32791,-0.985725 1.60701,-1.361428 2.77822,-3.324034 1,-1.675555 2.05782,-2.895015 3.69662,-2.714584 0.80751,0.08894 1.31314,0.726896 1.4448,0.866858 0.57948,0.616006 0.90514,1.480295 1.39524,3.841984 1.61903,7.80482 1.7044,17.102185 -1.65405,24.228575 -1.21953,2.58773 -3.12016,2.72428 -4.18974,3.11025 -0.66884,0.24115 -1.38424,0.32752 -2.00251,0.2842 -0.63179,-0.0445 -0.77496,-0.38597 -1.74843,-0.15165 -0.76496,0.18415 -1.3617,1.08862 -1.73868,2.17469 -0.90913,2.62023 -1.56871,4.47422 -2.01977,6.27093 M 186.94204,0.63814354 c 0.10215,2.69930546 0.74642,5.07589876 1.05056,6.84110566 0.0509,0.295631 0.40801,1.7855307 0.78098,2.0866635 0.79824,0.6443973 1.05781,0.6278073 1.42252,0.8347273 0.65232,0.370117 1.97096,0.920817 2.76195,2.222152 0.93817,1.54352 3.27785,7.053528 3.94218,9.394518 0.58874,2.07378 1.04606,4.180056 0.71139,6.55628 -0.55719,3.954861 -1.4816,7.089616 -4.41201,9.884017 -1.09337,1.042732 -2.40726,1.959186 -3.75444,2.412425 -2.86109,0.962062 -7.20325,1.101169 -10.26283,1.101169 -0.86334,0 -1.3562,-0.0014 -2.00251,0 -0.54868,0.0014 -1.33967,-0.02025 -1.66282,0.171894 -0.1547,0.09212 -0.4383,0.506247 -0.38674,1.258798 0.1259,1.834906 0.25457,1.022204 0.29362,2.845141 0.0621,2.887607 0.19875,4.10793 0.24505,6.271221 0.0383,1.773329 0.0616,2.369387 -7.4e-4,3.990775 -0.0603,1.565811 -0.30013,3.312635 -0.49112,4.845944 -0.38973,3.129905 -1.33366,6.390661 -2.10839,9.406831 -0.31363,1.220322 -0.86533,2.786704 -1.06758,3.990776 -0.0964,0.574101 -0.17622,1.368277 -0.26658,1.995388 -0.28035,1.949506 -0.44706,2.781865 -0.54193,3.420667 -0.0751,0.506833 -0.17572,0.912472 -0.27059,2.280456 M 111.3475,9.4743072 c 0.41227,0.4851648 1.14068,0.486818 1.46859,2.5655008 0.32491,2.061236 0.15168,2.923016 0.70763,5.130999 0.47485,1.884731 1.96421,3.636483 3.58098,4.386036 1.48761,0.689608 2.50462,0.603322 4.005,0.825237 5.14018,0.760357 11.39149,0.194236 16.52065,0.48984 1.38098,0.07953 2.71639,0.430148 4.00501,0.834356 1.79624,0.563271 3.74768,1.780173 5.25656,2.941489 1.62529,1.250824 2.04782,0.957502 2.74645,2.499653 0.31013,0.684417 0.25382,1.237425 0.25706,1.991112 0.002,0.644227 0.0964,0.925861 -0.0793,1.708908 -0.27409,1.222035 -1.39524,1.765634 -2.17322,1.909872 -3.49361,0.648217 -6.16446,-0.178729 -8.76095,1.797276 0.64756,0.863433 1.0473,1.031046 1.23253,3.135611 0.0651,0.739434 0.38875,2.684078 0.61303,3.705723 l 1.87735,8.551666 c 0.23329,1.062966 0.49085,2.723131 0.603,3.705718 0.15669,1.373689 -7.5e-4,2.375653 0.35544,3.705722 0.20501,0.76509 0.50538,1.175291 0.62904,1.425277 0.31891,0.643948 0.57572,1.311835 0.91564,2.850555 0.8318,3.76445 2.36471,9.147723 2.77247,13.112552 0.10558,1.026488 0.1069,2.065808 0.41051,2.80837 0.46133,1.128253 1.24982,0.897072 2.3557,0.897352 1.00825,2.92e-4 1.33867,-0.149643 2.25281,-0.129695 1.05558,0.02275 1.58473,0.356886 2.50313,0.538472 1.2015,0.237738 2.62629,0.364586 3.75469,1.216906 1.63229,1.232864 2.28687,3.603383 2.78824,4.64555 0.67785,1.408735 1.21827,1.706902 1.7174,2.280444 M 188.19355,9.4743072 c -0.43303,0.5329968 -1.04555,0.6561988 -1.39099,2.8505558 -0.2448,1.554751 -0.18172,3.0418 -0.74894,4.845944 -0.60175,1.915032 -1.94218,3.609431 -3.61725,4.386036 -1.48762,0.689579 -2.50464,0.603322 -4.00502,0.825237 -6.50839,0.962747 -13.30212,-0.554947 -19.52441,1.063085 -2.26908,0.590065 -5.15869,2.481979 -6.75843,3.614221 -1.2756,0.90277 -1.76221,1.300138 -2.25282,1.7987 m 48.06007,-1.425279 h 3.00375 m -51.06382,6.271224 c 0.19875,0.162767 0.34142,0.487729 1.01251,0.696105 0.37997,0.118017 0.99099,0.141388 1.49061,0.170179 0.68411,0.03933 1.13041,0.169607 2.00251,0.249424 3.41402,0.312705 6.04031,0.23574 8.01001,1.734847 -0.65232,0.878256 -0.86958,1.145638 -1.14544,3.420667 -0.10181,0.838919 -0.34292,2.590876 -0.55419,3.705722 -0.52515,2.771878 -1.1692,5.515827 -1.77296,8.266611 -0.23079,1.050425 -0.6383,2.729688 -0.74018,3.705718 -0.15444,1.47745 -0.0275,2.339452 -0.38147,3.705722 -0.29112,1.12341 -0.97197,2.190368 -1.25556,3.420666 -0.25808,1.120844 -0.56672,2.727696 -0.82129,3.990776 -0.62628,3.10711 -1.98323,7.838175 -2.29737,10.83155 -0.0982,0.933261 -0.14944,1.444083 -0.29312,1.995947 m -50.5632,-44.468657 c 0.77247,0.369147 1.25932,0.572393 1.93116,1.251394 1.35419,1.369406 3.33593,3.696601 5.32792,4.405249 3.72216,1.324369 8.21527,1.18469 12.26532,1.18469 1.74694,0 2.25683,0.09037 4.25533,0.061 1.19098,-0.0174 2.28835,-0.61116 3.25407,-1.211202 1.71113,-1.063256 3.60875,-2.645315 5.50688,-3.421523 0.66883,-0.273367 1.61276,-0.414184 2.25156,-0.536474 0.79049,-0.15108 1.13892,-0.229755 1.50313,-0.30786 m 23.52941,0 c 1.42453,0.30216 1.93692,-0.217496 4.50563,1.082072 1.3607,0.688408 3.05206,1.726581 4.25532,2.679237 1.89988,1.504239 3.16621,1.7682 3.75469,2.224859 m -48.31039,-0.285057 c 0.0163,-0.145377 -0.0566,0.537621 -0.14768,1.153056 -0.23329,1.579482 -0.27484,1.062967 -0.34318,2.837721 -0.0235,0.610874 0.002,2.538423 -0.0323,3.13561 -0.0268,0.459222 -0.3119,1.675277 0.17722,2.370521 1.08485,1.54187 1.19248,0.802714 3.34969,1.474882 1.90387,0.593199 6.02752,3.222839 8.01,4.350798 0.70414,0.400506 1.82478,1.0034 2.50313,1.198659 1.62378,0.466643 1.68662,0.505118 3.25407,0.582081 m -17.77217,-7.411438 c 0,2.23626 0.16195,2.593716 0.24054,4.560885 0.0551,1.386802 0.17874,2.671826 0.41027,3.990777 0.50388,2.86908 1.04055,5.737882 1.85207,8.551665 0.28836,0.999117 0.69463,3.452303 0.81276,4.275831 0.28886,2.011641 0.27234,2.145046 0.45909,3.419243 0.13867,0.945815 0.18872,1.338913 0.23029,1.711757 m 28.53566,-19.098718 c 1.09611,-0.09924 1.52565,-0.157064 3.00375,-0.582081 1.75845,-0.505689 6.34167,-3.393589 8.26032,-4.47822 0.67134,-0.37969 1.89988,-0.974032 2.50313,-1.142787 1.93442,-0.540466 2.26483,-0.577518 3.50438,-0.638243 m -38.54818,15.963107 h 0.50063 m 26.28285,0 h 0.50063 M 148.14352,79.88302 c -0.40952,0.335513 -0.92616,0.659908 -2.50313,0.987149 -1.05256,0.218359 -2.22077,0.426451 -3.25032,1.112865 -1.46582,0.977172 -1.99698,2.791545 -2.5602,3.886164 -0.82828,1.609699 -1.40199,1.94037 -1.94918,2.565499 M 10.221122,97.841533 c -0.159142,0.04476 -0.46483,0.145092 -1.0124609,0.259965 -0.5347685,0.112076 -1.1551958,0.209521 -1.7407813,0.447819 -1.3446819,0.547592 -2.0292535,1.813243 -2.47802,3.282983 -0.3804012,1.24569 -0.5209759,2.18496 -0.5568479,3.42067 -0.040214,1.38708 0.4801296,4.39271 1.0236612,5.69684 0.4853254,1.16417 1.3495565,1.93352 2.511632,2.00138 0.9519725,0.0555 1.9776058,-0.21465 2.9286139,-1.05701 1.058149,-0.93725 1.892136,-2.62877 2.275417,-4.07571 0.272663,-1.02933 0.468187,-2.01078 0.468187,-3.13562 0,-1.11683 -0.14248,-1.96716 -0.441898,-3.1356 -0.232094,-0.90563 -0.768335,-1.872816 -1.276671,-2.484254 -0.577997,-0.694679 -0.95555,-0.757399 -1.299481,-1.795858 -0.342026,-1.032474 -0.03113,-2.334322 0.08054,-3.701442 0.08375,-1.025636 0.18799,-1.92812 0.376225,-2.850555 0.283951,-1.391364 0.770008,-2.761342 1.370738,-3.990777 1.235991,-2.52959 3.482626,-4.004754 5.781152,-4.997593 2.360445,-1.019931 5.103406,-1.272776 7.759701,-1.27364 1.188985,-5.59e-4 2.733911,0.127712 3.493118,0.336936 0.588731,0.162197 0.742921,0.351764 1.012515,0.518231 m 115.894858,5.986178 v 0.285055 m 8.76095,-0.285055 h 0.25031 M 0.95951216,105.53803 H 4.2135786 m 129.9123914,4.56089 -0.50064,2.85055 m 30.28786,-1.71033 0.25032,3.13561 m -35.0438,0 c 0,1.55726 0,1.85914 0,2.28044 m 10.51315,31.35612 c -2.15721,13.2317 -1.32142,27.13643 -2.85959,40.47789 -0.33091,2.86908 -0.3617,4.06261 -0.39074,5.41606 -0.003,0.17331 -0.003,1.02676 -0.003,1.71033 0,1.3084 0,1.51421 0,1.71033 0,1.14279 0,2.09629 0,3.13561 m -82.352922,0 c 0,-1.03932 0,-1.99282 0,-3.13561 0,-0.19612 0,-0.40193 0,-1.71033 0,-0.50541 0,-1.02392 0,-1.14022 0,-0.59435 0,-1.08921 0,-2.56551 0,-1.53274 0,-4.0666 0,-5.7011 v -13.39762 c 0,-1.82521 -0.03279,-4.88785 0.0034,-6.55628 0.02149,-0.98573 0.02481,-1.83718 0.531911,-2.83829 0.416019,-0.82153 0.990991,-1.1901 1.717395,-1.6787 1.623283,-1.09233 4.602005,-3.35908 6.25757,-3.9138 1.743685,-0.58409 1.967713,-0.61031 3.754692,-1.2611"
       id="path125"
       inkscape:export-filename="/home/nataliya/path125.png"
       inkscape:export-xdpi="96"
       inkscape:export-ydpi="96" />
  </g>
</svg>
